<svg id="Layer_1" data-name="Layer 1" xmlns="http://www.w3.org/2000/svg" viewBox="0 0 200 200"><path d="M10.05,134.7V118c0-8.06-2.45-10.37-9.65-10.37V92.37c7.2,0,9.65-2.31,9.65-10.37V65.3C10.05,46,17.11,39,33.38,39H44.9v15.4H38.71c-7.35,0-8.93,2.45-8.93,11.67V81.28c0,10.51-3.46,16.56-10.94,18.58v.28c7.48,2,10.94,8.07,10.94,18.58V134c0,9.22,1.58,11.67,8.93,11.67H44.9v15.4H33.38C17.11,161.05,10.05,154,10.05,134.7Z"/><path d="M62.08,110.94V89.06c0-27.22,12.1-39.75,38-39.75,25.05,0,36.86,11.67,37.44,37H117c-.44-13-5-18.43-16.56-18.43-12.1,0-16.71,6-16.71,21.6v21c0,15.55,4.61,21.6,16.71,21.6,11.52,0,16.12-5.47,16.56-18.29h20.59c-.58,25.2-12.39,36.87-37.44,36.87C74.18,150.69,62.08,138.16,62.08,110.94Z"/><path d="M155.1,145.65h6.19c7.35,0,8.93-2.45,8.93-11.67V118.72c0-10.51,3.46-16.56,10.94-18.58v-.28c-7.48-2-10.94-8.07-10.94-18.58V66c0-9.22-1.58-11.67-8.93-11.67H155.1V39h11.52C182.89,39,190,46,190,65.3V82c0,8.06,2.45,10.37,9.65,10.37v15.26c-7.2,0-9.65,2.31-9.65,10.37v16.7c0,19.3-7.06,26.35-23.33,26.35H155.1Z"/></svg>