<svg id="Layer_1" data-name="Layer 1" xmlns="http://www.w3.org/2000/svg" viewBox="0 0 529.19 122.11"><path d="M9.65,95.76V79.05C9.65,71,7.2,68.69,0,68.69V53.42c7.2,0,9.65-2.3,9.65-10.36V26.35C9.65,7.06,16.7,0,33,0H44.5V15.41H38.3c-7.34,0-8.92,2.45-8.92,11.66V42.33c0,10.52-3.46,16.56-10.95,18.58v.29c7.49,2,11,8.06,11,18.57V95c0,9.21,1.58,11.66,8.92,11.66h6.2v15.41H33C16.7,122.11,9.65,115.05,9.65,95.76Z"/><path d="M67.68,72V50.11c0-27.21,12.1-39.74,38-39.74,25.06,0,36.87,11.66,37.44,37H122.54c-.43-13-5-18.44-16.56-18.44-12.09,0-16.7,6.05-16.7,21.6v21c0,15.55,4.61,21.6,16.7,21.6,11.52,0,16.13-5.48,16.56-18.29h20.59c-.57,25.2-12.38,36.86-37.44,36.86C79.78,111.74,67.68,99.21,67.68,72Z"/><path d="M172.94,71.85V50.25c0-27.35,12.53-39.88,39.6-39.88s39.6,12.53,39.6,39.88v21.6c0,27.36-12.53,39.89-39.6,39.89S172.94,99.21,172.94,71.85Zm57.6-.28v-21c0-15.4-5-21.6-18-21.6s-18,6.2-18,21.6v21c0,15.4,5,21.6,18,21.6S230.54,87,230.54,71.57Z"/><path d="M359.13,50.69V71.42c0,26.64-11.66,38.59-38,38.59H284.68V12.1h36.43C347.47,12.1,359.13,24.19,359.13,50.69Zm-21.6.43c0-15.27-4.89-20.59-19.44-20.59H306.28V91.58h11.81c14.55,0,19.44-5.33,19.44-20.59Z"/><path d="M460.07,91.44V110H391.53V12.1h67.1V30.67h-45.5V51h38.3V69.41h-38.3v22Z"/><path d="M484.7,106.7h6.19c7.34,0,8.93-2.45,8.93-11.66V79.77c0-10.51,3.45-16.56,10.94-18.57v-.29c-7.49-2-10.94-8.06-10.94-18.58V27.07c0-9.21-1.59-11.66-8.93-11.66H484.7V0h11.52c16.27,0,23.32,7.06,23.32,26.35V43.06c0,8.06,2.45,10.36,9.65,10.36V68.69c-7.2,0-9.65,2.3-9.65,10.36V95.76c0,19.29-7,26.35-23.32,26.35H484.7Z"/></svg>